<mxfile host="app.diagrams.net" agent="Mozilla/5.0 (Macintosh; Intel Mac OS X 10_15_7) AppleWebKit/605.1.15 (KHTML, like Gecko) Version/16.6.1 Safari/605.1.15" version="24.9.1">
  <diagram name="PÃ¡gina-1" id="lxi6OQSrpzE0xj64kM-6">
    <mxGraphModel dx="794" dy="547" grid="1" gridSize="10" guides="1" tooltips="1" connect="1" arrows="1" fold="1" page="1" pageScale="1" pageWidth="1169" pageHeight="827" math="0" shadow="0">
      <root>
        <mxCell id="0" />
        <mxCell id="1" parent="0" />
        <mxCell id="8rvoosXxcLyJtyJt3Rvo-5" value="&lt;div style=&quot;text-align: left;&quot;&gt;&lt;br&gt;&lt;/div&gt;&lt;div style=&quot;text-align: left;&quot;&gt;&lt;br&gt;&lt;/div&gt;&lt;div style=&quot;text-align: left;&quot;&gt;&lt;div&gt;COD (&lt;b&gt;PK&lt;/b&gt;): string&lt;/div&gt;&lt;div&gt;Nombre: string&lt;/div&gt;&lt;div&gt;Precio: decimal&lt;/div&gt;&lt;div&gt;&lt;br&gt;&lt;/div&gt;&lt;/div&gt;" style="shape=internalStorage;whiteSpace=wrap;html=1;backgroundOutline=1;dx=30;dy=30;" parent="1" vertex="1">
          <mxGeometry x="740" y="90" width="180" height="130" as="geometry" />
        </mxCell>
        <mxCell id="8rvoosXxcLyJtyJt3Rvo-7" value="" style="shape=internalStorage;whiteSpace=wrap;html=1;backgroundOutline=1;dx=30;dy=30;align=left;" parent="1" vertex="1">
          <mxGeometry x="130" y="90" width="200" height="170" as="geometry" />
        </mxCell>
        <mxCell id="8rvoosXxcLyJtyJt3Rvo-8" value="&lt;div&gt;&lt;br&gt;&lt;/div&gt;&lt;div&gt;&lt;br&gt;&lt;/div&gt;" style="shape=internalStorage;whiteSpace=wrap;html=1;backgroundOutline=1;dx=30;dy=30;align=left;" parent="1" vertex="1">
          <mxGeometry x="410" y="90" width="240" height="140" as="geometry" />
        </mxCell>
        <mxCell id="8rvoosXxcLyJtyJt3Rvo-9" value="&lt;b&gt;FACTURAS&lt;/b&gt;" style="text;html=1;align=center;verticalAlign=middle;whiteSpace=wrap;rounded=0;" parent="1" vertex="1">
          <mxGeometry x="210" y="90" width="60" height="30" as="geometry" />
        </mxCell>
        <mxCell id="8rvoosXxcLyJtyJt3Rvo-10" value="&lt;div style=&quot;text-align: left;&quot;&gt;NoFAC &lt;b&gt;(PK)&lt;/b&gt;: string&lt;/div&gt;&lt;div style=&quot;text-align: left;&quot;&gt;Sucursal: string (Opcional)&lt;/div&gt;&lt;div style=&quot;text-align: left;&quot;&gt;Fecha de Venta: date&lt;/div&gt;&lt;div style=&quot;text-align: left;&quot;&gt;Total: decimal&lt;/div&gt;&lt;div&gt;&lt;br&gt;&lt;/div&gt;" style="text;html=1;align=center;verticalAlign=middle;whiteSpace=wrap;rounded=0;" parent="1" vertex="1">
          <mxGeometry x="170" y="130" width="150" height="120" as="geometry" />
        </mxCell>
        <mxCell id="8rvoosXxcLyJtyJt3Rvo-11" value="&lt;b&gt;PRODUCTO&lt;/b&gt;" style="text;html=1;align=center;verticalAlign=middle;whiteSpace=wrap;rounded=0;" parent="1" vertex="1">
          <mxGeometry x="810" y="90" width="60" height="30" as="geometry" />
        </mxCell>
        <mxCell id="8rvoosXxcLyJtyJt3Rvo-13" value="&lt;b&gt;DETALLE FACTURA&lt;/b&gt;" style="text;html=1;align=center;verticalAlign=middle;whiteSpace=wrap;rounded=0;" parent="1" vertex="1">
          <mxGeometry x="450" y="90" width="160" height="30" as="geometry" />
        </mxCell>
        <mxCell id="8rvoosXxcLyJtyJt3Rvo-14" value="&lt;div style=&quot;text-align: left;&quot;&gt;NoFAC (&lt;b&gt;PK&lt;/b&gt;, FK): string&lt;/div&gt;&lt;div style=&quot;text-align: left;&quot;&gt;COD (&lt;b&gt;PK&lt;/b&gt;, FK): string&lt;/div&gt;&lt;div style=&quot;text-align: left;&quot;&gt;Cantidad: integer&lt;/div&gt;&lt;div style=&quot;text-align: left;&quot;&gt;Subtotal: decimal&lt;/div&gt;&lt;div&gt;&lt;br&gt;&lt;/div&gt;" style="text;html=1;align=center;verticalAlign=middle;whiteSpace=wrap;rounded=0;" parent="1" vertex="1">
          <mxGeometry x="450" y="130" width="140" height="90" as="geometry" />
        </mxCell>
        <mxCell id="8rvoosXxcLyJtyJt3Rvo-16" value="" style="edgeStyle=entityRelationEdgeStyle;fontSize=12;html=1;endArrow=ERoneToMany;rounded=0;exitX=1.005;exitY=0.659;exitDx=0;exitDy=0;exitPerimeter=0;" parent="1" edge="1">
          <mxGeometry width="100" height="100" relative="1" as="geometry">
            <mxPoint x="331" y="192.02999999999997" as="sourcePoint" />
            <mxPoint x="410" y="120" as="targetPoint" />
            <Array as="points">
              <mxPoint x="220" y="40" />
              <mxPoint x="370" y="160" />
              <mxPoint x="370" y="120" />
              <mxPoint x="390" y="160" />
            </Array>
          </mxGeometry>
        </mxCell>
        <mxCell id="YaTeFuS09FmB2hLUpn5I-2" value="" style="edgeStyle=entityRelationEdgeStyle;fontSize=12;html=1;endArrow=ERoneToMany;rounded=0;entryX=1.008;entryY=0.621;entryDx=0;entryDy=0;entryPerimeter=0;exitX=0;exitY=0.25;exitDx=0;exitDy=0;" edge="1" parent="1" source="8rvoosXxcLyJtyJt3Rvo-5" target="8rvoosXxcLyJtyJt3Rvo-8">
          <mxGeometry width="100" height="100" relative="1" as="geometry">
            <mxPoint x="470" y="350" as="sourcePoint" />
            <mxPoint x="570" y="250" as="targetPoint" />
            <Array as="points">
              <mxPoint x="670" y="190" />
              <mxPoint x="670" y="180" />
              <mxPoint x="670" y="177" />
            </Array>
          </mxGeometry>
        </mxCell>
      </root>
    </mxGraphModel>
  </diagram>
</mxfile>
